<svg width="22" height="22" viewBox="0 0 22 22" fill="none" xmlns="http://www.w3.org/2000/svg">
<path d="M16 8C16 11.87 12.64 15 8.5 15L7.57 16.12L7.02 16.78C6.55 17.34 5.65 17.22 5.34 16.55L4 13.6C2.18 12.32 1 10.29 1 8C1 4.13 4.36 1 8.5 1C11.52 1 14.13 2.67 15.3 5.07C15.75 5.96 16 6.95 16 8Z" stroke="white" stroke-width="1.5" stroke-linecap="round" stroke-linejoin="round"/>
<path opacity="0.4" d="M21 11.86C21 14.15 19.82 16.18 18 17.46L16.66 20.41C16.35 21.08 15.45 21.21 14.98 20.64L13.5 18.86C11.08 18.86 8.92001 17.79 7.57001 16.12L8.50001 15C12.64 15 16 11.87 16 8.00001C16 6.95001 15.75 5.96001 15.3 5.07001C18.57 5.82001 21 8.58001 21 11.86Z" stroke="white" stroke-width="1.5" stroke-linecap="round" stroke-linejoin="round"/>
<path opacity="0.4" d="M6 8H11" stroke="white" stroke-width="1.5" stroke-linecap="round" stroke-linejoin="round"/>
</svg>
