<svg width="50" height="50" viewBox="0 0 50 50" fill="none" xmlns="http://www.w3.org/2000/svg">
<rect width="50" height="50" rx="25" fill="#00CC92"/>
<path d="M37.4101 17.9932H37.3039C30.2772 17.2892 23.2639 17.0236 16.3169 17.7276L13.6072 17.9932C13.4754 18.007 13.3422 17.9945 13.2152 17.9564C13.0883 17.9184 12.9701 17.8555 12.8676 17.7715C12.7651 17.6876 12.6802 17.5841 12.618 17.4671C12.5557 17.3501 12.5172 17.2219 12.5048 17.09C12.4516 16.5321 12.8501 16.0539 13.3947 16.0008L16.1044 15.7352C23.1709 15.0179 30.3304 15.2968 37.5031 16.0008C38.0477 16.0539 38.4462 16.5454 38.3931 17.09C38.373 17.3366 38.2606 17.5666 38.0784 17.7341C37.8962 17.9015 37.6576 17.9941 37.4101 17.9932Z" fill="white"/>
<path d="M20.8065 16.6518C20.7534 16.6518 20.7003 16.6518 20.6339 16.6385C20.3762 16.5921 20.1469 16.4464 19.9954 16.2328C19.8439 16.0192 19.7823 15.7548 19.8236 15.4962L20.1158 13.7561C20.3284 12.481 20.6206 10.7144 23.7155 10.7144H27.1956C30.3038 10.7144 30.596 12.5474 30.7953 13.7694L31.0875 15.4962C31.1805 16.0408 30.8085 16.5588 30.2772 16.6385C29.7326 16.7315 29.2146 16.3596 29.1349 15.8283L28.8427 14.1015C28.6567 12.9459 28.6169 12.7201 27.2089 12.7201H23.7288C22.3208 12.7201 22.2942 12.906 22.095 14.0882L21.7895 15.815C21.7516 16.0484 21.632 16.2608 21.4519 16.4141C21.2718 16.5674 21.0431 16.6517 20.8065 16.6518Z" fill="white"/>
<path d="M29.7193 39.2754H21.1917C16.556 39.2754 16.3701 36.7118 16.2239 34.6396L15.3606 21.2638C15.3207 20.7192 15.7458 20.241 16.2904 20.2012C16.8482 20.1746 17.3131 20.5864 17.353 21.131L18.2164 34.5068C18.3625 36.5258 18.4156 37.2829 21.1917 37.2829H29.7193C32.5087 37.2829 32.5619 36.5258 32.6947 34.5068L33.5581 21.131C33.5979 20.5864 34.0761 20.1746 34.6207 20.2012C35.1653 20.241 35.5904 20.7059 35.5505 21.2638L34.6871 34.6396C34.541 36.7118 34.3551 39.2754 29.7193 39.2754Z" fill="white"/>
<path d="M27.6605 31.9668H23.2373C22.6927 31.9668 22.2411 31.5152 22.2411 30.9706C22.2411 30.426 22.6927 29.9744 23.2373 29.9744H27.6605C28.2051 29.9744 28.6567 30.426 28.6567 30.9706C28.6567 31.5152 28.2051 31.9668 27.6605 31.9668Z" fill="white"/>
<path d="M28.7763 26.6536H22.1348C21.5902 26.6536 21.1386 26.2019 21.1386 25.6573C21.1386 25.1128 21.5902 24.6611 22.1348 24.6611H28.7763C29.3209 24.6611 29.7725 25.1128 29.7725 25.6573C29.7725 26.2019 29.3209 26.6536 28.7763 26.6536Z" fill="white"/>
</svg>
