<svg width="102" height="102" viewBox="0 0 102 102" fill="none" xmlns="http://www.w3.org/2000/svg">
<g filter="url(#filter0_d_218_34)">
<circle cx="51" cy="51" r="31" fill="white"/>
</g>
<path d="M61.2349 45.2594H61.1435C55.101 44.654 49.0699 44.4255 43.0958 45.0309L40.7656 45.2594C40.6523 45.2712 40.5377 45.2605 40.4285 45.2277C40.3194 45.195 40.2178 45.141 40.1296 45.0687C40.0414 44.9965 39.9685 44.9075 39.9149 44.8069C39.8614 44.7063 39.8283 44.5961 39.8176 44.4827C39.7719 44.0029 40.1146 43.5917 40.5829 43.546L42.9131 43.3176C48.9899 42.7007 55.1467 42.9406 61.3149 43.546C61.7832 43.5917 62.1259 44.0143 62.0802 44.4827C62.0629 44.6948 61.9663 44.8925 61.8096 45.0365C61.653 45.1805 61.4477 45.2601 61.2349 45.2594Z" fill="#00CC92"/>
<path d="M46.9567 44.1059C46.911 44.1059 46.8653 44.1059 46.8082 44.0945C46.5866 44.0545 46.3895 43.9293 46.2592 43.7456C46.1289 43.5619 46.0758 43.3345 46.1114 43.1121L46.3627 41.6158C46.5455 40.5192 46.7968 39 49.4582 39H52.451C55.1238 39 55.3751 40.5763 55.5465 41.6272L55.7978 43.1121C55.8777 43.5805 55.5579 44.0259 55.101 44.0945C54.6327 44.1744 54.1872 43.8546 54.1187 43.3977L53.8674 41.9128C53.7074 40.919 53.6732 40.7248 52.4624 40.7248H49.4697C48.2589 40.7248 48.236 40.8847 48.0647 41.9013L47.802 43.3863C47.7694 43.587 47.6665 43.7697 47.5117 43.9015C47.3568 44.0334 47.1601 44.1058 46.9567 44.1059Z" fill="#00CC92"/>
<path d="M54.6212 63.5611H47.2879C43.3014 63.5611 43.1415 61.3566 43.0159 59.5746L42.2734 48.0721C42.2391 47.6038 42.6047 47.1925 43.073 47.1583C43.5527 47.1354 43.9525 47.4895 43.9868 47.9579L44.7293 59.4604C44.8549 61.1966 44.9006 61.8477 47.2879 61.8477H54.6212C57.02 61.8477 57.0657 61.1966 57.1799 59.4604L57.9224 47.9579C57.9566 47.4895 58.3678 47.1354 58.8362 47.1583C59.3045 47.1925 59.67 47.5923 59.6358 48.0721L58.8933 59.5746C58.7676 61.3566 58.6077 63.5611 54.6212 63.5611Z" fill="#00CC92"/>
<path opacity="0.5" d="M52.8507 57.2761H49.047C48.5787 57.2761 48.1903 56.8878 48.1903 56.4194C48.1903 55.9511 48.5787 55.5627 49.047 55.5627H52.8507C53.3191 55.5627 53.7074 55.9511 53.7074 56.4194C53.7074 56.8878 53.3191 57.2761 52.8507 57.2761Z" fill="#00CC92"/>
<path opacity="0.5" d="M53.8102 52.7068H48.0989C47.6306 52.7068 47.2422 52.3184 47.2422 51.8501C47.2422 51.3818 47.6306 50.9934 48.0989 50.9934H53.8102C54.2786 50.9934 54.6669 51.3818 54.6669 51.8501C54.6669 52.3184 54.2786 52.7068 53.8102 52.7068Z" fill="#00CC92"/>
<defs>
<filter id="filter0_d_218_34" x="0" y="0" width="102" height="102" filterUnits="userSpaceOnUse" color-interpolation-filters="sRGB">
<feFlood flood-opacity="0" result="BackgroundImageFix"/>
<feColorMatrix in="SourceAlpha" type="matrix" values="0 0 0 0 0 0 0 0 0 0 0 0 0 0 0 0 0 0 127 0" result="hardAlpha"/>
<feOffset/>
<feGaussianBlur stdDeviation="10"/>
<feComposite in2="hardAlpha" operator="out"/>
<feColorMatrix type="matrix" values="0 0 0 0 1 0 0 0 0 1 0 0 0 0 1 0 0 0 0.5 0"/>
<feBlend mode="normal" in2="BackgroundImageFix" result="effect1_dropShadow_218_34"/>
<feBlend mode="normal" in="SourceGraphic" in2="effect1_dropShadow_218_34" result="shape"/>
</filter>
</defs>
</svg>
