<?xml version="1.0" encoding="utf-8"?>
<!-- Generator: Adobe Illustrator 26.0.2, SVG Export Plug-In . SVG Version: 6.00 Build 0)  -->
<svg version="1.1" id="Layer_1" xmlns="http://www.w3.org/2000/svg" xmlns:xlink="http://www.w3.org/1999/xlink" x="0px" y="0px"
	 viewBox="0 0 50 50" style="enable-background:new 0 0 50 50;" xml:space="preserve">
<style type="text/css">
	.st0{fill:#F3F4F5;}
	.st1{fill:#FFFFFF;}
</style>
<g>
	<path class="st0" d="M28.8,14.1c-0.2-1.2-0.2-1.4-1.6-1.4h-3.5c-1.4,0-1.4,0.2-1.6,1.4l-0.2,1.3c2.4-0.1,4.8-0.1,7.2,0L28.8,14.1z"
		/>
	<path class="st0" d="M25,0C11.2,0,0,11.2,0,25s11.2,25,25,25s25-11.2,25-25S38.8,0,25,0z M34.7,34.6c-0.1,2.1-0.3,4.6-5,4.6h-8.5
		c-4.6,0-4.8-2.6-5-4.6l-0.9-13.4c0-0.5,0.4-1,0.9-1.1c0.6,0,1,0.4,1.1,0.9l0.9,13.4c0.1,2,0.2,2.8,3,2.8h8.5c2.8,0,2.8-0.8,3-2.8
		l0.9-13.4c0-0.5,0.5-1,1.1-0.9c0.5,0,1,0.5,0.9,1.1L34.7,34.6z M22.1,26.7c-0.5,0-1-0.5-1-1c0-0.5,0.5-1,1-1h6.6c0.5,0,1,0.5,1,1
		c0,0.5-0.5,1-1,1H22.1z M28.7,31c0,0.5-0.5,1-1,1h-4.4c-0.5,0-1-0.5-1-1c0-0.5,0.5-1,1-1h4.4C28.2,30,28.7,30.4,28.7,31z
		 M38.1,17.7c-0.2,0.2-0.4,0.3-0.7,0.3h-0.1c-7-0.7-14-1-21-0.3L13.6,18c-0.1,0-0.3,0-0.4,0c-0.1,0-0.2-0.1-0.3-0.2
		c-0.1-0.1-0.2-0.2-0.2-0.3c-0.1-0.1-0.1-0.2-0.1-0.4c-0.1-0.6,0.3-1,0.9-1.1l2.7-0.3c1.2-0.1,2.5-0.2,3.7-0.3l0.3-1.7
		c0.2-1.3,0.5-3,3.6-3h3.5c3.1,0,3.4,1.8,3.6,3.1l0.3,1.7c0,0,0,0,0,0c2.1,0.1,4.3,0.3,6.4,0.5c0.5,0.1,0.9,0.5,0.9,1.1
		C38.4,17.3,38.3,17.6,38.1,17.7z"/>
	<path class="st1" d="M37.5,16c-2.1-0.2-4.3-0.4-6.4-0.5c0,0,0,0,0,0l-0.3-1.7c-0.2-1.2-0.5-3.1-3.6-3.1h-3.5c-3.1,0-3.4,1.8-3.6,3
		l-0.3,1.7c-1.2,0.1-2.5,0.2-3.7,0.3L13.4,16c-0.5,0.1-0.9,0.5-0.9,1.1c0,0.1,0.1,0.3,0.1,0.4c0.1,0.1,0.1,0.2,0.2,0.3
		c0.1,0.1,0.2,0.1,0.3,0.2c0.1,0,0.3,0.1,0.4,0l2.7-0.3c6.9-0.7,14-0.4,21,0.3h0.1c0.2,0,0.5-0.1,0.7-0.3c0.2-0.2,0.3-0.4,0.3-0.6
		C38.4,16.5,38,16.1,37.5,16z M21.9,15.4l0.2-1.3c0.2-1.2,0.2-1.4,1.6-1.4h3.5c1.4,0,1.4,0.2,1.6,1.4l0.2,1.3
		C26.7,15.3,24.3,15.3,21.9,15.4z"/>
	<path class="st1" d="M34.6,20.2c-0.5,0-1,0.4-1.1,0.9l-0.9,13.4c-0.1,2-0.2,2.8-3,2.8h-8.5c-2.8,0-2.8-0.8-3-2.8l-0.9-13.4
		c0-0.5-0.5-1-1.1-0.9c-0.5,0-1,0.5-0.9,1.1l0.9,13.4c0.1,2.1,0.3,4.6,5,4.6h8.5c4.6,0,4.8-2.6,5-4.6l0.9-13.4
		C35.6,20.7,35.2,20.2,34.6,20.2z"/>
	<path class="st1" d="M23.2,30c-0.5,0-1,0.5-1,1c0,0.5,0.5,1,1,1h4.4c0.5,0,1-0.5,1-1c0-0.5-0.5-1-1-1H23.2z"/>
	<path class="st1" d="M29.8,25.7c0-0.5-0.5-1-1-1h-6.6c-0.5,0-1,0.5-1,1c0,0.5,0.5,1,1,1h6.6C29.3,26.7,29.8,26.2,29.8,25.7z"/>
</g>
</svg>
